<svg width="543" height="443" viewBox="0 0 543 443" fill="none" xmlns="http://www.w3.org/2000/svg">
<path d="M333.386 425H218.572C216.382 425 212 425.764 212 430.728C212 435.692 216.572 435.979 218.572 435.979H227.492H252.64C245.88 435.979 244.19 442.661 252.64 442.661H327C327 442.661 333.386 442.661 333.386 439C333.386 435.339 327 435.979 327 434.5C327 433.021 336 433 336 433C340.5 433 347 433.319 347 429.5C347 425.681 343.244 425 333.386 425Z" fill="#C4C4C4" fill-opacity="0.6"/>
<path fill-rule="evenodd" clip-rule="evenodd" d="M254.604 27H49.403C48.8901 27 48.4603 27.388 48.4082 27.8983L28 227.5L27.5 271C27.5 299 46 316.5 65 316.5H157V313H156.951C156.418 313 155.979 312.583 155.952 312.051L147.541 146.299C147.517 145.832 147.814 145.413 148.263 145.284C158.788 142.259 181.182 134.038 192.5 123.5C207 110 210 105.5 215 78.5C218.723 58.3951 241.795 38.1747 255.185 28.8863C256.005 28.3178 255.601 27 254.604 27ZM405 312.419V316.5H527.029C527.581 316.5 528 316.052 528 315.5V27.901C528 27.3889 527.63 26.9601 527.12 26.9166C504.41 24.9819 456.688 37.3538 440.5 102.5C424.61 166.448 410.566 186.742 405.009 189.307C404.701 189.449 404.441 189.69 404.355 190.018C402.494 197.165 402.565 216.972 417 243.5C431.564 270.266 415.367 300.194 405 312.419Z" fill="#3F1583"/>
<rect x="319" y="81" width="174" height="153" rx="18" fill="black" stroke="black" stroke-width="4" stroke-linecap="round" stroke-linejoin="round"/>
<rect x="31" y="29" width="127" height="206" rx="17" fill="white" stroke="black" stroke-width="6" stroke-linecap="round" stroke-linejoin="round"/>
<rect x="125" y="143" width="167" height="185" rx="17" fill="white" stroke="black" stroke-width="6" stroke-linecap="round" stroke-linejoin="round"/>
<path d="M48 29H141C150.389 29 158 36.6112 158 46V72H31V46C31 36.6112 38.6112 29 48 29Z" fill="#C285FF" stroke="black" stroke-width="6" stroke-linecap="round" stroke-linejoin="round"/>
<path d="M142 143H275C284.389 143 292 150.611 292 160V180H125V160C125 150.611 132.611 143 142 143Z" fill="#C285FF" stroke="black" stroke-width="6" stroke-linecap="round" stroke-linejoin="round"/>
<mask id="path-9-inside-1" fill="white">
<rect x="167.111" y="200" width="82.797" height="74.4925" rx="3.46477"/>
</mask>
<rect x="167.111" y="200" width="82.797" height="74.4925" rx="3.46477" fill="#FF9593" stroke="black" stroke-width="13.7949" stroke-linecap="round" stroke-linejoin="round" mask="url(#path-9-inside-1)"/>
<path d="M188.475 229.074C187.411 227.983 185.664 227.961 184.574 229.025C183.483 230.089 183.461 231.836 184.525 232.926L188.475 229.074ZM205.031 250L203.056 251.926L205.11 254.032L207.08 251.848L205.031 250ZM235.048 220.848C236.069 219.717 235.98 217.972 234.848 216.952C233.717 215.931 231.972 216.02 230.952 217.152L235.048 220.848ZM184.525 232.926L203.056 251.926L207.006 248.074L188.475 229.074L184.525 232.926ZM207.08 251.848L235.048 220.848L230.952 217.152L202.983 248.152L207.08 251.848Z" fill="black"/>
<rect x="117" y="47" width="9" height="9" fill="#8A15FF" stroke="black" stroke-width="3.64157"/>
<rect x="250" y="158" width="9" height="9" fill="#8A15FF" stroke="black" stroke-width="3.64157"/>
<path d="M98 56.0131H106.74" stroke="black" stroke-width="3.64157"/>
<path d="M231 167.013H239.74" stroke="black" stroke-width="3.64157"/>
<path fill-rule="evenodd" clip-rule="evenodd" d="M142.406 50.9149L145.231 48.09L142.141 45L139.316 47.8249L136.491 45L133.401 48.09L136.226 50.9149L133.401 53.7398L136.491 56.8297L139.316 54.0049L142.141 56.8298L145.231 53.7398L142.406 50.9149Z" fill="black"/>
<rect x="306" y="65" width="172" height="151" rx="17" fill="white" stroke="black" stroke-width="6" stroke-linecap="round" stroke-linejoin="round"/>
<path d="M323 65H461C470.389 65 478 72.6112 478 82V108H306V82C306 72.6112 313.611 65 323 65Z" fill="#C285FF" stroke="black" stroke-width="6" stroke-linecap="round" stroke-linejoin="round"/>
<rect x="432" y="83" width="9" height="9" fill="#8A15FF" stroke="black" stroke-width="3.64157"/>
<path d="M413 92.0131H421.74" stroke="black" stroke-width="3.64157"/>
<path fill-rule="evenodd" clip-rule="evenodd" d="M457.406 86.9149L460.231 84.09L457.141 81L454.316 83.8249L451.491 81L448.401 84.09L451.226 86.9149L448.401 89.7398L451.491 92.8297L454.316 90.0049L457.141 92.8298L460.231 89.7398L457.406 86.9149Z" fill="black"/>
<path fill-rule="evenodd" clip-rule="evenodd" d="M275.406 161.915L278.231 159.09L275.141 156L272.316 158.825L269.491 156L266.401 159.09L269.226 161.915L266.401 164.74L269.491 167.83L272.316 165.005L275.141 167.83L278.231 164.74L275.406 161.915Z" fill="black"/>
<path d="M454 191L541 279.706" stroke="black" stroke-width="4" stroke-linecap="round" stroke-linejoin="round"/>
<path fill-rule="evenodd" clip-rule="evenodd" d="M79.032 291.833L79.032 287.1L76.833 287.1L76.833 291.833L72.0996 291.833L72.0996 294.032L76.833 294.032L76.833 298.766L79.032 298.766L79.032 294.032L83.7657 294.032L83.7657 291.833L79.032 291.833Z" fill="black"/>
<path d="M79.032 287.1L80.032 287.1L80.032 286.1L79.032 286.1L79.032 287.1ZM79.032 291.833L78.032 291.833L78.032 292.833L79.032 292.833L79.032 291.833ZM76.833 287.1L76.833 286.1L75.833 286.1L75.833 287.1L76.833 287.1ZM76.833 291.833L76.833 292.833L77.833 292.833L77.833 291.833L76.833 291.833ZM72.0996 291.833L72.0996 290.833L71.0996 290.833L71.0996 291.833L72.0996 291.833ZM72.0996 294.032L71.0996 294.032L71.0996 295.032L72.0996 295.032L72.0996 294.032ZM76.833 294.032L77.833 294.032L77.833 293.032L76.833 293.032L76.833 294.032ZM76.833 298.766L75.833 298.766L75.833 299.766L76.833 299.766L76.833 298.766ZM79.032 298.766L79.032 299.766L80.032 299.766L80.032 298.766L79.032 298.766ZM79.032 294.032L79.032 293.032L78.032 293.032L78.032 294.032L79.032 294.032ZM83.7657 294.032L83.7657 295.032L84.7657 295.032L84.7657 294.032L83.7657 294.032ZM83.7657 291.833L84.7657 291.833L84.7657 290.833L83.7657 290.833L83.7657 291.833ZM78.032 287.1L78.032 291.833L80.032 291.833L80.032 287.1L78.032 287.1ZM76.833 288.1L79.032 288.1L79.032 286.1L76.833 286.1L76.833 288.1ZM77.833 291.833L77.833 287.1L75.833 287.1L75.833 291.833L77.833 291.833ZM72.0996 292.833L76.833 292.833L76.833 290.833L72.0996 290.833L72.0996 292.833ZM73.0996 294.032L73.0996 291.833L71.0996 291.833L71.0996 294.032L73.0996 294.032ZM76.833 293.032L72.0996 293.032L72.0996 295.032L76.833 295.032L76.833 293.032ZM77.833 298.766L77.833 294.032L75.833 294.032L75.833 298.766L77.833 298.766ZM79.032 297.766L76.833 297.766L76.833 299.766L79.032 299.766L79.032 297.766ZM78.032 294.032L78.032 298.766L80.032 298.766L80.032 294.032L78.032 294.032ZM83.7657 293.032L79.032 293.032L79.032 295.032L83.7657 295.032L83.7657 293.032ZM82.7657 291.833L82.7657 294.032L84.7657 294.032L84.7657 291.833L82.7657 291.833ZM79.032 292.833L83.7657 292.833L83.7657 290.833L79.032 290.833L79.032 292.833Z" fill="black"/>
<path fill-rule="evenodd" clip-rule="evenodd" d="M438.032 34.8331L438.032 30.0995L435.833 30.0995L435.833 34.8331L431.1 34.8331L431.1 37.032L435.833 37.032L435.833 41.7656L438.032 41.7656L438.032 37.032L442.766 37.032L442.766 34.8331L438.032 34.8331Z" fill="black"/>
<path d="M438.032 30.0995L439.032 30.0995L439.032 29.0995L438.032 29.0995L438.032 30.0995ZM438.032 34.8331L437.032 34.8331L437.032 35.8331L438.032 35.8331L438.032 34.8331ZM435.833 30.0995L435.833 29.0995L434.833 29.0995L434.833 30.0995L435.833 30.0995ZM435.833 34.8331L435.833 35.8331L436.833 35.8331L436.833 34.8331L435.833 34.8331ZM431.1 34.8331L431.1 33.8331L430.1 33.8331L430.1 34.8331L431.1 34.8331ZM431.1 37.032L430.1 37.032L430.1 38.032L431.1 38.032L431.1 37.032ZM435.833 37.032L436.833 37.032L436.833 36.032L435.833 36.032L435.833 37.032ZM435.833 41.7656L434.833 41.7656L434.833 42.7656L435.833 42.7656L435.833 41.7656ZM438.032 41.7656L438.032 42.7656L439.032 42.7656L439.032 41.7656L438.032 41.7656ZM438.032 37.032L438.032 36.032L437.032 36.032L437.032 37.032L438.032 37.032ZM442.766 37.032L442.766 38.032L443.766 38.032L443.766 37.032L442.766 37.032ZM442.766 34.8331L443.766 34.8331L443.766 33.8331L442.766 33.8331L442.766 34.8331ZM437.032 30.0995L437.032 34.8331L439.032 34.8331L439.032 30.0995L437.032 30.0995ZM435.833 31.0995L438.032 31.0995L438.032 29.0995L435.833 29.0995L435.833 31.0995ZM436.833 34.8331L436.833 30.0995L434.833 30.0995L434.833 34.8331L436.833 34.8331ZM431.1 35.8331L435.833 35.8331L435.833 33.8331L431.1 33.8331L431.1 35.8331ZM432.1 37.032L432.1 34.8331L430.1 34.8331L430.1 37.032L432.1 37.032ZM435.833 36.032L431.1 36.032L431.1 38.032L435.833 38.032L435.833 36.032ZM436.833 41.7656L436.833 37.032L434.833 37.032L434.833 41.7656L436.833 41.7656ZM438.032 40.7656L435.833 40.7656L435.833 42.7656L438.032 42.7656L438.032 40.7656ZM437.032 37.032L437.032 41.7656L439.032 41.7656L439.032 37.032L437.032 37.032ZM442.766 36.032L438.032 36.032L438.032 38.032L442.766 38.032L442.766 36.032ZM441.766 34.8331L441.766 37.032L443.766 37.032L443.766 34.8331L441.766 34.8331ZM438.032 35.8331L442.766 35.8331L442.766 33.8331L438.032 33.8331L438.032 35.8331Z" fill="black"/>
<path d="M347.071 11.0544C347.608 9.09118 350.392 9.09117 350.929 11.0544L352.579 17.0889C352.9 18.2609 354.183 18.8787 355.299 18.3985L361.046 15.9263C362.915 15.122 364.652 17.2991 363.451 18.9429L359.762 23.9955C359.046 24.9768 359.363 26.365 360.434 26.9383L365.95 29.8899C367.745 30.8502 367.125 33.565 365.091 33.6515L358.841 33.9176C357.627 33.9693 356.739 35.0825 356.959 36.2775L358.091 42.4304C358.459 44.4322 355.95 45.6404 354.614 44.1045L350.509 39.3836C349.712 38.4667 348.288 38.4667 347.491 39.3836L343.386 44.1045C342.05 45.6403 339.541 44.4322 339.909 42.4304L341.041 36.2775C341.261 35.0825 340.373 33.9693 339.159 33.9176L332.909 33.6515C330.875 33.565 330.255 30.8502 332.05 29.89L337.566 26.9383C338.637 26.365 338.954 24.9768 338.238 23.9955L334.549 18.9429C333.348 17.2991 335.085 15.122 336.954 15.9263L342.701 18.3985C343.817 18.8787 345.1 18.2609 345.421 17.0889L347.071 11.0544Z" fill="#C285FF"/>
<path d="M402.071 297.054C402.608 295.091 405.392 295.091 405.929 297.054L407.579 303.089C407.9 304.261 409.183 304.879 410.299 304.399L416.046 301.926C417.915 301.122 419.652 303.299 418.451 304.943L414.762 309.996C414.046 310.977 414.363 312.365 415.434 312.938L420.95 315.89C422.745 316.85 422.125 319.565 420.091 319.652L413.841 319.918C412.627 319.969 411.739 321.083 411.959 322.278L413.091 328.43C413.459 330.432 410.95 331.64 409.614 330.104L405.509 325.384C404.712 324.467 403.288 324.467 402.491 325.384L398.386 330.104C397.05 331.64 394.541 330.432 394.909 328.43L396.041 322.278C396.261 321.083 395.373 319.969 394.159 319.918L387.909 319.652C385.875 319.565 385.255 316.85 387.05 315.89L392.566 312.938C393.637 312.365 393.954 310.977 393.238 309.996L389.549 304.943C388.348 303.299 390.085 301.122 391.954 301.926L397.701 304.399C398.817 304.879 400.1 304.261 400.421 303.089L402.071 297.054Z" fill="#FF9593"/>
<path d="M260.605 66.3764C260.605 65.2718 259.71 64.3764 258.605 64.3764C257.501 64.3764 256.605 65.2718 256.605 66.3764H260.605ZM256.605 77.6791C256.605 78.7837 257.501 79.6791 258.605 79.6791C259.71 79.6791 260.605 78.7837 260.605 77.6791H256.605ZM256.605 66.3764V77.6791H260.605V66.3764H256.605Z" fill="black"/>
<path d="M236 88.3946C234.895 88.3946 234 89.29 234 90.3946C234 91.4992 234.895 92.3946 236 92.3946V88.3946ZM247.303 92.3946C248.407 92.3946 249.303 91.4992 249.303 90.3946C249.303 89.29 248.407 88.3946 247.303 88.3946V92.3946ZM236 92.3946H247.303V88.3946H236V92.3946Z" fill="black"/>
<path d="M281 91.6927C282.105 91.6927 283 90.7973 283 89.6927C283 88.5881 282.105 87.6927 281 87.6927V91.6927ZM269.697 87.6927C268.593 87.6927 267.697 88.5881 267.697 89.6927C267.697 90.7973 268.593 91.6927 269.697 91.6927V87.6927ZM281 87.6927H269.697V91.6927H281V87.6927Z" fill="black"/>
<path d="M260.605 101.697C260.605 100.593 259.71 99.6973 258.605 99.6973C257.501 99.6973 256.605 100.593 256.605 101.697H260.605ZM256.605 113C256.605 114.105 257.501 115 258.605 115C259.71 115 260.605 114.105 260.605 113H256.605ZM256.605 101.697V113H260.605V101.697H256.605Z" fill="black"/>
<path d="M244.454 72.1433C243.701 71.3354 242.435 71.2912 241.627 72.0446C240.82 72.7979 240.775 74.0634 241.529 74.8713L244.454 72.1433ZM249.237 83.1375C249.99 83.9454 251.256 83.9895 252.064 83.2362C252.872 82.4829 252.916 81.2174 252.163 80.4095L249.237 83.1375ZM241.529 74.8713L249.237 83.1375L252.163 80.4095L244.454 72.1433L241.529 74.8713Z" fill="black"/>
<path d="M272.684 107.944C273.437 108.752 274.703 108.796 275.51 108.043C276.318 107.289 276.363 106.024 275.609 105.216L272.684 107.944ZM267.901 96.9498C267.147 96.142 265.882 96.0978 265.074 96.8511C264.266 97.6044 264.222 98.87 264.975 99.6778L267.901 96.9498ZM275.609 105.216L267.901 96.9498L264.975 99.6778L272.684 107.944L275.609 105.216Z" fill="black"/>
<path d="M252.694 100.334C253.502 99.581 253.546 98.3155 252.793 97.5076C252.04 96.6998 250.774 96.6556 249.966 97.4089L252.694 100.334ZM241.7 105.117C240.892 105.871 240.848 107.136 241.601 107.944C242.355 108.752 243.62 108.796 244.428 108.043L241.7 105.117ZM249.966 97.4089L241.7 105.117L244.428 108.043L252.694 100.334L249.966 97.4089Z" fill="black"/>
<path d="M264.306 79.7529C263.498 80.5062 263.454 81.7718 264.207 82.5796C264.96 83.3875 266.226 83.4317 267.034 82.6783L264.306 79.7529ZM275.3 74.9699C276.108 74.2166 276.152 72.9511 275.399 72.1432C274.645 71.3354 273.38 71.2912 272.572 72.0445L275.3 74.9699ZM267.034 82.6783L275.3 74.9699L272.572 72.0445L264.306 79.7529L267.034 82.6783Z" fill="black"/>
<path fill-rule="evenodd" clip-rule="evenodd" d="M94.4286 111.791C90.091 104.628 75.6261 92.2967 62.4399 103.526C45.5798 117.883 61.4881 133.999 69.8629 142.482C70.1061 142.729 70.343 142.969 70.5726 143.202C82.2837 155.105 91.3562 164.694 94.4286 168C94.9421 167.456 95.6215 166.73 96.4515 165.842C100.637 161.367 108.653 152.797 118.524 142.926C118.756 142.694 118.995 142.456 119.241 142.211C127.699 133.78 143.767 117.765 126.738 103.497C113.42 92.3386 98.8095 104.593 94.4286 111.712V111.791Z" fill="#FF9593"/>
<path d="M62.4399 103.526L60.819 101.622L60.819 101.622L62.4399 103.526ZM94.4286 111.791L92.29 113.086C92.871 114.046 94.0202 114.501 95.1007 114.199C96.1813 113.898 96.9286 112.913 96.9286 111.791H94.4286ZM69.8629 142.482L71.6421 140.726L71.642 140.726L69.8629 142.482ZM70.5726 143.202L68.7905 144.956L68.7905 144.956L70.5726 143.202ZM94.4286 168L92.5972 169.702C93.0678 170.208 93.7272 170.497 94.4185 170.5C95.1099 170.503 95.7715 170.219 96.2462 169.717L94.4286 168ZM96.4515 165.842L98.2774 167.55L98.2774 167.55L96.4515 165.842ZM119.241 142.211L121.005 143.981L121.005 143.981L119.241 142.211ZM126.738 103.497L125.133 105.414L125.133 105.414L126.738 103.497ZM94.4286 111.712L92.2994 110.401C92.0569 110.795 91.9286 111.249 91.9286 111.712H94.4286ZM64.0607 105.429C69.7799 100.559 75.6262 100.78 80.7392 103.047C86.0185 105.387 90.3501 109.882 92.29 113.086L96.5671 110.497C94.1695 106.537 89.0999 101.284 82.7658 98.4759C76.2654 95.5937 68.2861 95.2636 60.819 101.622L64.0607 105.429ZM71.642 140.726C67.384 136.413 61.687 130.597 58.9902 124.231C57.668 121.11 57.1386 118.01 57.7585 114.977C58.3738 111.967 60.1809 108.733 64.0607 105.429L60.819 101.622C56.2688 105.497 53.7418 109.661 52.8598 113.976C51.9823 118.268 52.7922 122.419 54.3863 126.182C57.5224 133.584 63.967 140.068 68.0837 144.239L71.642 140.726ZM72.3547 141.449C72.1234 141.214 71.885 140.972 71.6421 140.726L68.0837 144.239C68.3273 144.485 68.5627 144.724 68.7905 144.956L72.3547 141.449ZM96.26 166.298C93.1698 162.973 84.0807 153.367 72.3547 141.449L68.7905 144.956C80.4868 156.843 89.5427 166.415 92.5972 169.702L96.26 166.298ZM96.2462 169.717C96.7648 169.167 97.4491 168.436 98.2774 167.55L94.6257 164.135C93.7939 165.024 93.1193 165.745 92.611 166.284L96.2462 169.717ZM98.2774 167.55C102.46 163.078 110.452 154.534 120.292 144.694L116.756 141.158C106.854 151.061 98.8144 159.656 94.6257 164.135L98.2774 167.55ZM120.292 144.694C120.522 144.464 120.759 144.227 121.005 143.981L117.476 140.44C117.23 140.685 116.99 140.925 116.756 141.158L120.292 144.694ZM121.005 143.981C125.162 139.839 131.674 133.393 134.844 126.032C136.456 122.287 137.277 118.151 136.388 113.871C135.494 109.57 132.936 105.429 128.344 101.581L125.133 105.414C129.054 108.7 130.874 111.91 131.493 114.888C132.116 117.888 131.585 120.957 130.251 124.054C127.53 130.374 121.778 136.152 117.476 140.44L121.005 143.981ZM128.344 101.581C120.814 95.2721 112.78 95.6025 106.232 98.4588C99.8438 101.246 94.7238 106.462 92.2994 110.401L96.5577 113.022C98.5143 109.842 102.89 105.372 108.231 103.042C113.414 100.781 119.344 100.564 125.133 105.414L128.344 101.581ZM91.9286 111.712V111.791H96.9286V111.712H91.9286Z" fill="black"/>
<circle cx="393.5" cy="162.5" r="44" fill="#C285FF" stroke="black" stroke-width="5"/>
<path d="M393.5 183C383.1 183 378.167 173 377 168H410C408.833 173 403.9 183 393.5 183Z" fill="black" stroke="black" stroke-width="4" stroke-linecap="round" stroke-linejoin="round"/>
<path fill-rule="evenodd" clip-rule="evenodd" d="M379 169C379.463 170.754 380.27 172.91 381.467 175H405.533C406.73 172.91 407.537 170.754 408 169H379Z" fill="white"/>
<circle cx="33" cy="236" r="1.5" fill="black" stroke="black"/>
<circle cx="33" cy="246" r="1.5" fill="black" stroke="black"/>
<circle cx="42" cy="246" r="1.5" fill="black" stroke="black"/>
<circle cx="51" cy="246" r="1.5" fill="black" stroke="black"/>
<circle cx="60" cy="246" r="1.5" fill="black" stroke="black"/>
<circle cx="69" cy="246" r="1.5" fill="black" stroke="black"/>
<circle cx="78" cy="246" r="1.5" fill="black" stroke="black"/>
<circle cx="87" cy="246" r="1.5" fill="black" stroke="black"/>
<circle cx="97" cy="246" r="1.5" fill="black" stroke="black"/>
<circle cx="106" cy="246" r="1.5" fill="black" stroke="black"/>
<circle cx="115" cy="246" r="1.5" fill="black" stroke="black"/>
<circle cx="33" cy="256" r="1.5" fill="black" stroke="black"/>
<circle cx="42" cy="256" r="1.5" fill="black" stroke="black"/>
<circle cx="51" cy="256" r="1.5" fill="black" stroke="black"/>
<circle cx="60" cy="256" r="1.5" fill="black" stroke="black"/>
<circle cx="69" cy="256" r="1.5" fill="black" stroke="black"/>
<circle cx="78" cy="256" r="1.5" fill="black" stroke="black"/>
<circle cx="87" cy="256" r="1.5" fill="black" stroke="black"/>
<circle cx="97" cy="256" r="1.5" fill="black" stroke="black"/>
<circle cx="106" cy="256" r="1.5" fill="black" stroke="black"/>
<circle cx="115" cy="256" r="1.5" fill="black" stroke="black"/>
<circle cx="33" cy="266" r="1.5" fill="black" stroke="black"/>
<circle cx="42" cy="266" r="1.5" fill="black" stroke="black"/>
<circle cx="51" cy="266" r="1.5" fill="black" stroke="black"/>
<circle cx="60" cy="266" r="1.5" fill="black" stroke="black"/>
<circle cx="69" cy="266" r="1.5" fill="black" stroke="black"/>
<circle cx="78" cy="266" r="1.5" fill="black" stroke="black"/>
<circle cx="87" cy="266" r="1.5" fill="black" stroke="black"/>
<circle cx="97" cy="266" r="1.5" fill="black" stroke="black"/>
<circle cx="106" cy="266" r="1.5" fill="black" stroke="black"/>
<circle cx="115" cy="266" r="1.5" fill="black" stroke="black"/>
<path d="M371.5 157C371.333 154.833 372.6 151.5 377 151.5C381.4 151.5 382.333 154.833 382.5 157" stroke="black" stroke-width="4" stroke-linecap="round"/>
<path d="M405.014 157C404.848 154.833 406.114 151.5 410.514 151.5C414.914 151.5 415.847 154.833 416.014 157" stroke="black" stroke-width="4" stroke-linecap="round"/>
<path d="M377.061 282.097C380.5 292.625 379.319 303.923 373.878 313.474C379.319 323.026 380.397 334.426 376.958 344.954C373.519 355.481 365.921 363.903 355.911 368.422C354.679 379.361 348.981 389.169 340.048 395.691C335.531 398.978 330.449 401.186 325.161 402.316L317.974 403.086C315.048 403.137 312.122 402.881 309.247 402.264C307.861 403.805 306.321 405.243 304.73 406.527L297.543 411.046C292.307 413.613 286.506 415 280.449 415C274.443 415 268.59 413.613 263.354 411.046L256.167 406.424C254.576 405.14 253.036 403.702 251.65 402.162C248.724 402.778 245.798 403.035 242.923 402.983L235.736 402.213C230.449 401.083 225.366 398.875 220.849 395.588C211.865 389.067 206.167 379.258 204.987 368.32C194.976 363.852 187.379 355.379 183.939 344.851C180.5 334.324 181.681 323.026 187.122 313.474C181.681 303.923 180.5 292.625 183.939 282.097C187.379 271.57 194.976 263.148 204.987 258.629C206.219 247.691 211.917 237.882 220.849 231.36C229.781 224.89 240.921 222.527 251.65 224.736C259.042 216.622 269.412 212 280.5 212C291.588 212 301.958 216.622 309.35 224.736C320.079 222.476 331.219 224.838 340.151 231.36C349.135 237.882 354.833 247.691 356.013 258.629C366.024 263.097 373.621 271.57 377.061 282.097Z" fill="white"/>
<path d="M374.443 313.224C379.98 303.507 381.182 292.015 377.682 281.306C374.182 270.597 366.45 261.978 356.264 257.433C355.062 246.306 349.264 236.328 340.122 229.694C331.033 223.06 319.697 220.657 308.779 222.955C301.256 214.701 290.704 210 279.421 210C268.137 210 257.585 214.701 250.062 222.955C239.145 220.709 227.809 223.112 218.719 229.694C209.63 236.328 203.831 246.306 202.577 257.433C192.391 262.03 184.659 270.597 181.159 281.306C177.659 292.015 178.861 303.507 184.398 313.224C178.861 322.94 177.659 334.433 181.159 345.142C184.659 355.851 192.391 364.47 202.577 369.015C203.779 380.142 209.577 390.119 218.719 396.754C223.316 400.097 228.488 402.343 233.868 403.493V430.239C233.868 432.276 235.488 433.896 237.525 433.896C239.562 433.896 241.182 432.276 241.182 430.239V404.276C244.107 404.328 247.085 404.067 250.062 403.44C251.473 405.007 253.04 406.47 254.659 407.776V430.187C254.659 432.224 256.279 433.843 258.316 433.843C260.353 433.843 261.973 432.224 261.973 430.187V412.478C267.301 415.09 273.256 416.5 279.368 416.5C285.533 416.5 291.436 415.09 296.764 412.478V430.291C296.764 432.328 298.383 433.948 300.421 433.948C302.458 433.948 304.077 432.328 304.077 430.291V407.881C305.697 406.575 307.264 405.112 308.674 403.545C311.6 404.172 314.577 404.433 317.555 404.381V430.343C317.555 432.381 319.174 434 321.212 434C323.249 434 324.868 432.381 324.868 430.343V403.597C330.249 402.448 335.421 400.201 340.018 396.858C349.107 390.224 354.906 380.246 356.159 369.119C366.346 364.522 374.077 355.955 377.577 345.246C381.077 334.537 379.98 322.94 374.443 313.224ZM370.786 342.896C367.756 352.246 360.756 359.612 351.562 363.112L349.316 363.948L349.212 366.299C348.689 376.119 343.883 385.052 335.891 390.799C332.548 393.201 328.891 394.925 325.025 395.918V371.679C325.025 369.642 323.406 368.022 321.368 368.022C319.331 368.022 317.712 369.642 317.712 371.679V396.91C314.63 396.963 311.548 396.649 308.465 395.813L306.167 395.187L304.652 397.015C304.495 397.172 304.339 397.381 304.234 397.537C302.092 400.045 299.637 402.239 296.921 403.963C291.801 407.254 285.794 409.03 279.525 409.03C273.256 409.03 267.249 407.254 262.13 403.963C259.413 402.239 256.958 400.045 254.816 397.537C254.659 397.381 254.503 397.224 254.398 397.015L252.883 395.187L250.585 395.813C247.503 396.649 244.421 397.015 241.339 396.91V371.679C241.339 369.642 239.719 368.022 237.682 368.022C235.645 368.022 234.025 369.642 234.025 371.679V395.918C230.159 394.925 226.503 393.201 223.159 390.799C215.219 385 210.361 376.067 209.839 366.299L209.734 363.948L207.488 363.112C198.294 359.612 191.294 352.246 188.264 342.896C185.234 333.545 186.54 323.463 191.921 315.261L193.227 313.276L191.921 311.291C186.54 303.037 185.234 292.955 188.264 283.657C191.294 274.358 198.294 266.94 207.488 263.44L209.734 262.604L209.839 260.254C210.361 250.433 215.167 241.5 223.159 235.754C231.1 229.955 241.077 228.127 250.585 230.687L252.883 231.313L254.398 229.485C260.562 221.858 269.756 217.47 279.577 217.47C289.398 217.47 298.592 221.858 304.756 229.485L306.271 231.313L308.57 230.687C318.077 228.127 328.055 230.007 335.995 235.754C343.936 241.552 348.794 250.485 349.316 260.254L349.421 262.604L351.667 263.44C360.861 266.94 367.861 274.306 370.891 283.657C373.921 293.007 372.615 303.09 367.234 311.291L365.928 313.276L367.234 315.261C372.458 323.463 373.816 333.545 370.786 342.896Z" fill="black"/>
<path d="M318.443 286.269C315.57 283.552 311.495 282.873 308.048 284.284C304.025 279.53 297.965 276.5 291.227 276.5H267.406C260.719 276.5 254.712 279.478 250.689 284.179C247.294 282.925 243.324 283.604 240.555 286.269L232.824 293.739C230.943 295.515 229.898 297.97 229.846 300.582C229.794 303.194 230.734 305.649 232.562 307.53C234.339 309.41 236.794 310.455 239.406 310.507C239.458 310.507 239.562 310.507 239.615 310.507C241.757 310.507 243.742 309.828 245.413 308.575V327.955C245.413 340.127 255.286 350 267.458 350H291.279C303.451 350 313.324 340.127 313.324 327.955V308.313C315.048 309.724 317.189 310.507 319.488 310.507C319.54 310.507 319.645 310.507 319.697 310.507C322.309 310.455 324.712 309.41 326.54 307.53C328.316 305.649 329.309 303.194 329.257 300.582C329.204 297.97 328.159 295.567 326.279 293.739L318.443 286.269ZM318.182 302.828L312.331 290.97C312.697 291.075 313.115 291.284 313.376 291.545L321.107 299.015C321.577 299.485 321.839 300.06 321.839 300.739C321.839 301.418 321.63 301.992 321.16 302.463C320.689 302.933 320.115 303.194 319.436 303.194C319.018 303.194 318.548 303.037 318.182 302.828ZM305.958 327.955C305.958 336.052 299.376 342.687 291.227 342.687H267.406C259.309 342.687 252.674 336.104 252.674 327.955V298.492C252.674 296.821 252.936 295.201 253.458 293.687L255.077 290.395C257.689 286.425 262.234 283.761 267.354 283.761H291.174C299.271 283.761 305.906 290.343 305.906 298.492V327.955H305.958ZM239.562 303.194C238.883 303.194 238.309 302.933 237.839 302.463C237.368 301.992 237.159 301.366 237.159 300.739C237.159 300.112 237.421 299.485 237.891 299.015L245.622 291.545C245.936 291.231 246.301 291.075 246.667 290.97L240.868 302.828C240.503 303.037 240.033 303.194 239.562 303.194Z" fill="black"/>
<path d="M261.973 310.507C264.021 310.507 265.682 308.847 265.682 306.798C265.682 304.75 264.021 303.09 261.973 303.09C259.924 303.09 258.264 304.75 258.264 306.798C258.264 308.847 259.924 310.507 261.973 310.507Z" fill="black"/>
<path d="M296.712 310.507C298.76 310.507 300.421 308.847 300.421 306.798C300.421 304.75 298.76 303.09 296.712 303.09C294.663 303.09 293.003 304.75 293.003 306.798C293.003 308.847 294.663 310.507 296.712 310.507Z" fill="black"/>
<path d="M2.55554 32.1937H17.6524" stroke="black" stroke-width="4" stroke-linecap="round" stroke-linejoin="round"/>
<path d="M12.8195 10.6902L23.8318 21.7026" stroke="black" stroke-width="4" stroke-linecap="round" stroke-linejoin="round"/>
<path d="M36.1041 2V17.0969" stroke="black" stroke-width="4" stroke-linecap="round" stroke-linejoin="round"/>
</svg>
