<svg width="244" height="151" viewBox="0 0 244 151" fill="none" xmlns="http://www.w3.org/2000/svg">
<path d="M244 3H182C182 11.0423 191.538 16.0688 200.527 19.8889C207.717 22.945 209.026 35.2363 208.781 41H244V3Z" fill="#3F1583"/>
<path d="M3 127.632V9C21.1888 12.3158 35.2292 30.3684 36.5056 36.2632C37.5267 40.9789 44.164 47.5614 47.3551 50.2632C72.8831 58 108.5 93.1304 108.5 112.5C108.5 138 145 143.5 145 149H21.827C7.53124 149 3.3191 134.754 3 127.632Z" fill="#3F1583"/>
<rect x="14.9162" y="49.9162" width="87.1675" height="86.1675" rx="9.08377" fill="black" stroke="black" stroke-width="1.83246"/>
<path d="M122.597 21.3927H129.194" stroke="black" stroke-width="1.83246" stroke-linecap="round" stroke-linejoin="round"/>
<path d="M127.082 11.9963L131.894 16.8084" stroke="black" stroke-width="1.83246" stroke-linecap="round" stroke-linejoin="round"/>
<path d="M137.257 8.19897V14.7958" stroke="black" stroke-width="1.83246" stroke-linecap="round" stroke-linejoin="round"/>
<path fill-rule="evenodd" clip-rule="evenodd" d="M155.309 129.11L155.309 127.1L153.11 127.1L153.11 129.11L151.099 129.11L151.099 131.309L153.11 131.309L153.11 133.319L155.309 133.319L155.309 131.309L157.319 131.309V129.11L155.309 129.11Z" fill="black"/>
<path fill-rule="evenodd" clip-rule="evenodd" d="M100.309 12.1098L100.309 10.0995L98.1098 10.0995L98.1098 12.1098L96.0995 12.1098L96.0995 14.3088L98.1098 14.3088L98.1098 16.3191L100.309 16.3191V14.3088L102.319 14.3088V12.1098H100.309Z" fill="black"/>
<rect x="20.9162" y="42.9162" width="91.1675" height="86.1675" rx="9.08377" fill="white" stroke="black" stroke-width="1.83246"/>
<rect x="137" y="23" width="96" height="94" rx="9" fill="white" stroke="black" stroke-width="2" stroke-linecap="round" stroke-linejoin="round"/>
<path d="M30 42.9162H103C108.017 42.9162 112.084 46.9832 112.084 52V62.0838H20.9162V52C20.9162 46.9832 24.9832 42.9162 30 42.9162Z" fill="#C285FF" stroke="black" stroke-width="1.83246"/>
<path d="M146 23H224C228.971 23 233 27.0294 233 32V42H137V32C137 27.0294 141.029 23 146 23Z" fill="#C285FF" stroke="black" stroke-width="2" stroke-linecap="round" stroke-linejoin="round"/>
<circle cx="29.2827" cy="52.8743" r="2.56545" fill="#8A15FF" stroke="black" stroke-width="1.83246"/>
<circle cx="37.3455" cy="52.8743" r="2.56545" fill="#8A15FF" stroke="black" stroke-width="1.83246"/>
<circle cx="45.4083" cy="52.8743" r="2.56545" fill="#8A15FF" stroke="black" stroke-width="1.83246"/>
<rect x="212.691" y="30.6544" width="5.13089" height="5.13089" fill="#8A15FF" stroke="black" stroke-width="1.83246"/>
<path d="M203.895 35.4188H208.293" stroke="black" stroke-width="1.83246"/>
<path fill-rule="evenodd" clip-rule="evenodd" d="M226.241 32.8534L227.662 31.4318L226.107 29.877L224.686 31.2985L223.264 29.877L221.709 31.4319L223.131 32.8534L221.709 34.2749L223.264 35.8298L224.686 34.4083L226.107 35.8298L227.662 34.2749L226.241 32.8534Z" fill="black"/>
<path fill-rule="evenodd" clip-rule="evenodd" d="M39.11 1.34985C31.8233 1.34985 25.9163 7.25689 25.9163 14.5436V30.0178C25.9163 37.3045 31.8233 43.2115 39.11 43.2115H62.0695L76.4715 53.2408V42.8892C82.3575 41.5636 86.754 36.3041 86.754 30.0178V14.5436C86.754 7.25688 80.8469 1.34985 73.5602 1.34985H39.11Z" fill="#FF9593"/>
<path d="M62.0695 43.2115L62.641 42.3909C62.4733 42.2741 62.2739 42.2115 62.0695 42.2115V43.2115ZM76.4715 53.2408L75.9 54.0614C76.2057 54.2743 76.6043 54.2996 76.9344 54.1272C77.2645 53.9548 77.4715 53.6133 77.4715 53.2408H76.4715ZM76.4715 42.8892L76.2518 41.9136C75.7956 42.0164 75.4715 42.4216 75.4715 42.8892H76.4715ZM26.9163 14.5436C26.9163 7.80918 32.3756 2.34985 39.11 2.34985V0.349854C31.271 0.349854 24.9163 6.70461 24.9163 14.5436H26.9163ZM26.9163 30.0178V14.5436H24.9163V30.0178H26.9163ZM39.11 42.2115C32.3756 42.2115 26.9163 36.7522 26.9163 30.0178H24.9163C24.9163 37.8567 31.271 44.2115 39.11 44.2115V42.2115ZM62.0695 42.2115H39.11V44.2115H62.0695V42.2115ZM77.043 52.4202L62.641 42.3909L61.4981 44.0321L75.9 54.0614L77.043 52.4202ZM75.4715 42.8892V53.2408H77.4715V42.8892H75.4715ZM85.754 30.0178C85.754 35.8264 81.6915 40.6886 76.2518 41.9136L76.6912 43.8648C83.0235 42.4387 87.754 36.7818 87.754 30.0178H85.754ZM85.754 14.5436V30.0178H87.754V14.5436H85.754ZM73.5602 2.34985C80.2946 2.34985 85.754 7.80917 85.754 14.5436H87.754C87.754 6.70459 81.3992 0.349854 73.5602 0.349854V2.34985ZM39.11 2.34985H73.5602V0.349854H39.11V2.34985Z" fill="black"/>
<circle cx="45.3" cy="23.3" r="3.3" fill="black"/>
<circle cx="56.3" cy="23.3" r="3.3" fill="black"/>
<circle cx="67.3" cy="23.3" r="3.3" fill="black"/>
<path fill-rule="evenodd" clip-rule="evenodd" d="M211.434 149C216.747 149 221.054 144.693 221.054 139.379V126.352C221.054 121.038 216.747 116.731 211.434 116.731H194.875L184.446 109V116.978C180.18 117.964 177 121.786 177 126.352V139.379C177 144.693 181.307 149 186.621 149H211.434Z" fill="#FF9593"/>
<path d="M194.875 116.731L194.279 117.534C194.451 117.662 194.66 117.731 194.875 117.731V116.731ZM184.446 109L185.041 108.197C184.738 107.972 184.333 107.937 183.996 108.107C183.659 108.277 183.446 108.622 183.446 109H184.446ZM184.446 116.978L184.671 117.952C185.125 117.847 185.446 117.443 185.446 116.978H184.446ZM220.054 139.379C220.054 144.14 216.195 148 211.434 148V150C217.299 150 222.054 145.245 222.054 139.379H220.054ZM220.054 126.352V139.379H222.054V126.352H220.054ZM211.434 117.731C216.195 117.731 220.054 121.591 220.054 126.352H222.054C222.054 120.486 217.299 115.731 211.434 115.731V117.731ZM194.875 117.731H211.434V115.731H194.875V117.731ZM183.85 109.803L194.279 117.534L195.47 115.928L185.041 108.197L183.85 109.803ZM185.446 116.978V109H183.446V116.978H185.446ZM178 126.352C178 122.262 180.849 118.836 184.671 117.952L184.221 116.004C179.511 117.092 176 121.311 176 126.352H178ZM178 139.379V126.352H176V139.379H178ZM186.621 148C181.86 148 178 144.14 178 139.379H176C176 145.245 180.755 150 186.621 150V148ZM211.434 148H186.621V150H211.434V148Z" fill="black"/>
<path d="M208.289 126.946C206.735 125.507 205.057 124.861 203.305 125.025C201.412 125.203 199.909 126.314 199 127.183C198.091 126.314 196.587 125.202 194.695 125.025C192.942 124.861 191.265 125.507 189.711 126.946C187.781 128.734 187.682 131.519 188.441 133.487C189.82 137.052 193.894 139.8 197.167 142.008C197.566 142.277 197.953 142.538 198.32 142.791C198.442 142.874 198.575 142.929 198.712 142.962C198.726 142.966 198.74 142.969 198.754 142.972C198.836 142.989 198.917 143 198.999 143C199.003 143 199.007 142.999 199.011 142.999C199.086 142.998 199.161 142.988 199.234 142.974C199.256 142.969 199.276 142.965 199.297 142.96C199.371 142.941 199.443 142.918 199.513 142.885C199.522 142.881 199.529 142.876 199.538 142.872C199.586 142.848 199.634 142.821 199.679 142.79C200.049 142.536 200.437 142.273 200.838 142.003C204.11 139.796 208.181 137.05 209.557 133.486C210.318 131.521 210.221 128.737 208.289 126.946ZM207.374 132.714C206.248 135.629 202.505 138.154 199.497 140.182C199.328 140.296 199.163 140.408 198.999 140.519C198.838 140.409 198.675 140.3 198.509 140.187C195.498 138.157 191.752 135.631 190.625 132.714C190.127 131.426 190.153 129.637 191.33 128.547C192.381 127.572 193.404 127.147 194.457 127.241C196.477 127.424 198.015 129.479 198.044 129.518C198.06 129.54 198.08 129.557 198.097 129.577C198.123 129.608 198.149 129.639 198.179 129.668C198.21 129.698 198.243 129.723 198.277 129.748C198.298 129.764 198.315 129.783 198.337 129.797C198.343 129.801 198.35 129.804 198.356 129.808C198.393 129.832 198.433 129.85 198.473 129.869C198.503 129.884 198.532 129.9 198.562 129.912C198.597 129.926 198.633 129.934 198.669 129.945C198.706 129.955 198.742 129.968 198.78 129.974C198.814 129.981 198.849 129.982 198.883 129.985C198.923 129.989 198.962 129.995 199.001 129.995C199.038 129.995 199.075 129.989 199.112 129.986C199.149 129.983 199.186 129.981 199.222 129.974C199.258 129.967 199.293 129.955 199.328 129.945C199.365 129.935 199.403 129.926 199.439 129.912C199.469 129.9 199.497 129.884 199.526 129.87C199.566 129.85 199.606 129.832 199.644 129.807C199.65 129.804 199.657 129.801 199.663 129.797C199.685 129.783 199.702 129.764 199.723 129.748C199.757 129.722 199.79 129.698 199.822 129.668C199.852 129.639 199.878 129.607 199.905 129.575C199.922 129.555 199.941 129.538 199.957 129.516C199.972 129.496 201.518 127.432 203.532 127.243C204.587 127.144 205.615 127.57 206.669 128.547C207.847 129.639 207.872 131.426 207.374 132.714Z" fill="black"/>
<path d="M210.768 76.8963C212.265 74.2704 212.589 71.1645 211.644 68.2705C210.698 65.3764 208.608 63.047 205.855 61.8187C205.531 58.8117 203.964 56.1152 201.493 54.3223C199.037 52.5294 195.973 51.88 193.022 52.5012C190.99 50.2706 188.138 49 185.088 49C182.039 49 179.187 50.2706 177.154 52.5012C174.204 51.8941 171.14 52.5435 168.684 54.3223C166.227 56.1152 164.66 58.8117 164.322 61.8187C161.569 63.0611 159.479 65.3764 158.533 68.2705C157.587 71.1645 157.912 74.2704 159.409 76.8963C157.912 79.5221 157.587 82.628 158.533 85.5221C159.479 88.4162 161.569 90.7456 164.322 91.9738C164.646 94.9808 166.213 97.6773 168.684 99.4702C169.926 100.374 171.324 100.981 172.778 101.291V108.52C172.778 109.07 173.216 109.508 173.766 109.508C174.317 109.508 174.754 109.07 174.754 108.52V101.503C175.545 101.517 176.35 101.447 177.154 101.277C177.536 101.701 177.959 102.096 178.397 102.449V108.505C178.397 109.056 178.834 109.494 179.385 109.494C179.936 109.494 180.373 109.056 180.373 108.505V103.72C181.813 104.425 183.423 104.807 185.074 104.807C186.74 104.807 188.335 104.425 189.775 103.72V108.534C189.775 109.084 190.213 109.522 190.764 109.522C191.314 109.522 191.752 109.084 191.752 108.534V102.477C192.19 102.124 192.613 101.729 192.994 101.306C193.785 101.475 194.59 101.546 195.394 101.531V108.548C195.394 109.098 195.832 109.536 196.382 109.536C196.933 109.536 197.371 109.098 197.371 108.548V101.32C198.825 101.009 200.222 100.402 201.465 99.4985C203.921 97.7055 205.488 95.0091 205.827 92.002C208.58 90.7597 210.669 88.4444 211.615 85.5503C212.561 82.6562 212.265 79.5221 210.768 76.8963ZM209.78 84.915C208.961 87.4421 207.069 89.4327 204.585 90.3785L203.978 90.6044L203.949 91.2397C203.808 93.8938 202.509 96.3079 200.349 97.8608C199.446 98.5102 198.458 98.9761 197.413 99.2443V92.6938C197.413 92.1432 196.975 91.7056 196.425 91.7056C195.874 91.7056 195.437 92.1432 195.437 92.6938V99.5126C194.604 99.5267 193.771 99.442 192.938 99.2161L192.317 99.0467L191.907 99.5408C191.865 99.5832 191.822 99.6396 191.794 99.682C191.215 100.36 190.552 100.953 189.818 101.418C188.434 102.308 186.811 102.788 185.117 102.788C183.423 102.788 181.799 102.308 180.416 101.418C179.681 100.953 179.018 100.36 178.439 99.682C178.397 99.6396 178.354 99.5973 178.326 99.5408L177.917 99.0467L177.296 99.2161C176.463 99.442 175.63 99.5408 174.797 99.5126V92.6938C174.797 92.1432 174.359 91.7056 173.809 91.7056C173.258 91.7056 172.82 92.1432 172.82 92.6938V99.2443C171.776 98.9761 170.787 98.5102 169.884 97.8608C167.738 96.2938 166.425 93.8797 166.284 91.2397L166.256 90.6044L165.649 90.3785C163.164 89.4327 161.272 87.4421 160.453 84.915C159.634 82.388 159.987 79.6633 161.442 77.4469L161.794 76.9104L161.442 76.3739C159.987 74.1433 159.634 71.4187 160.453 68.9057C161.272 66.3928 163.164 64.3881 165.649 63.4422L166.256 63.2164L166.284 62.5811C166.425 59.927 167.724 57.5129 169.884 55.9599C172.03 54.3929 174.726 53.8988 177.296 54.5905L177.917 54.76L178.326 54.2658C179.992 52.2047 182.477 51.0188 185.131 51.0188C187.785 51.0188 190.27 52.2047 191.935 54.2658L192.345 54.76L192.966 54.5905C195.535 53.8988 198.232 54.407 200.378 55.9599C202.524 57.527 203.837 59.9411 203.978 62.5811L204.006 63.2164L204.613 63.4422C207.098 64.3881 208.989 66.3787 209.808 68.9057C210.627 71.4328 210.274 74.1575 208.82 76.3739L208.467 76.9104L208.82 77.4469C210.232 79.6633 210.599 82.388 209.78 84.915Z" fill="black"/>
<path d="M195.634 69.6116C194.858 68.8775 193.757 68.694 192.825 69.0751C191.738 67.7904 190.1 66.9716 188.279 66.9716H181.841C180.034 66.9716 178.411 67.7763 177.324 69.0469C176.406 68.7081 175.333 68.8916 174.585 69.6116L172.496 71.6304C171.987 72.1104 171.705 72.7739 171.691 73.4798C171.677 74.1857 171.931 74.8492 172.425 75.3574C172.905 75.8657 173.568 76.148 174.274 76.1621C174.288 76.1621 174.317 76.1621 174.331 76.1621C174.91 76.1621 175.446 75.9786 175.898 75.6398V80.8774C175.898 84.1668 178.566 86.835 181.855 86.835H188.293C191.582 86.835 194.251 84.1668 194.251 80.8774V75.5692C194.717 75.9504 195.295 76.1621 195.917 76.1621C195.931 76.1621 195.959 76.1621 195.973 76.1621C196.679 76.148 197.328 75.8657 197.822 75.3574C198.302 74.8492 198.571 74.1857 198.557 73.4798C198.542 72.7739 198.26 72.1245 197.752 71.6304L195.634 69.6116ZM195.564 74.0869L193.982 70.8822C194.081 70.9104 194.194 70.9669 194.265 71.0375L196.354 73.0563C196.481 73.1833 196.552 73.3386 196.552 73.5222C196.552 73.7057 196.495 73.861 196.368 73.988C196.241 74.1151 196.086 74.1857 195.902 74.1857C195.79 74.1857 195.662 74.1433 195.564 74.0869ZM192.26 80.8774C192.26 83.0656 190.481 84.8585 188.279 84.8585H181.841C179.653 84.8585 177.86 83.0797 177.86 80.8774V72.9151C177.86 72.4633 177.931 72.0257 178.072 71.6163L178.51 70.7269C179.216 69.654 180.444 68.934 181.827 68.934H188.265C190.453 68.934 192.246 70.7128 192.246 72.9151V80.8774H192.26ZM174.317 74.1857C174.133 74.1857 173.978 74.1151 173.851 73.988C173.724 73.861 173.667 73.6916 173.667 73.5222C173.667 73.3528 173.738 73.1833 173.865 73.0563L175.954 71.0375C176.039 70.9528 176.138 70.9104 176.237 70.8822L174.67 74.0869C174.571 74.1433 174.444 74.1857 174.317 74.1857Z" fill="black"/>
<path d="M180.373 76.1622C180.927 76.1622 181.376 75.7134 181.376 75.1598C181.376 74.6062 180.927 74.1575 180.373 74.1575C179.82 74.1575 179.371 74.6062 179.371 75.1598C179.371 75.7134 179.82 76.1622 180.373 76.1622Z" fill="black"/>
<path d="M189.761 76.1622C190.315 76.1622 190.764 75.7134 190.764 75.1598C190.764 74.6062 190.315 74.1575 189.761 74.1575C189.208 74.1575 188.759 74.6062 188.759 75.1598C188.759 75.7134 189.208 76.1622 189.761 76.1622Z" fill="black"/>
<path d="M1.5 149.5L38.5 110" stroke="black" stroke-width="2" stroke-linecap="round" stroke-linejoin="round"/>
<circle cx="237.5" cy="43.5" r="1" fill="black" stroke="black"/>
<circle cx="242.5" cy="43.5" r="1" fill="black" stroke="black"/>
<circle cx="237.5" cy="79.5" r="1" fill="black" stroke="black"/>
<circle cx="242.5" cy="79.5" r="1" fill="black" stroke="black"/>
<circle cx="237.5" cy="49.5" r="1" fill="black" stroke="black"/>
<circle cx="242.5" cy="49.5" r="1" fill="black" stroke="black"/>
<circle cx="237.5" cy="85.5" r="1" fill="black" stroke="black"/>
<circle cx="242.5" cy="85.5" r="1" fill="black" stroke="black"/>
<circle cx="237.5" cy="55.5" r="1" fill="black" stroke="black"/>
<circle cx="242.5" cy="55.5" r="1" fill="black" stroke="black"/>
<circle cx="237.5" cy="91.5" r="1" fill="black" stroke="black"/>
<circle cx="242.5" cy="91.5" r="1" fill="black" stroke="black"/>
<circle cx="237.5" cy="61.5" r="1" fill="black" stroke="black"/>
<circle cx="242.5" cy="61.5" r="1" fill="black" stroke="black"/>
<circle cx="237.5" cy="97.5" r="1" fill="black" stroke="black"/>
<circle cx="242.5" cy="97.5" r="1" fill="black" stroke="black"/>
<circle cx="237.5" cy="67.5" r="1" fill="black" stroke="black"/>
<circle cx="242.5" cy="67.5" r="1" fill="black" stroke="black"/>
<circle cx="237.5" cy="103.5" r="1" fill="black" stroke="black"/>
<circle cx="242.5" cy="103.5" r="1" fill="black" stroke="black"/>
<circle cx="237.5" cy="73.5" r="1" fill="black" stroke="black"/>
<circle cx="242.5" cy="73.5" r="1" fill="black" stroke="black"/>
<circle cx="237.5" cy="109.5" r="1" fill="black" stroke="black"/>
<circle cx="242.5" cy="109.5" r="1" fill="black" stroke="black"/>
<circle cx="237.5" cy="115.5" r="1" fill="black" stroke="black"/>
<circle cx="242.5" cy="115.5" r="1" fill="black" stroke="black"/>
<path d="M78.4774 71.5753L154.112 34.2908L124.554 114.64L112.898 93.9976L87.7506 122.444L75 110.883L99.9217 82.8473L78.4774 71.5753Z" fill="white" stroke="black" stroke-width="2.26034" stroke-linecap="round" stroke-linejoin="round"/>
</svg>
