<?xml version="1.0" encoding="utf-8"?>
<!-- Generator: Adobe Illustrator 23.1.1, SVG Export Plug-In . SVG Version: 6.00 Build 0)  -->
<svg version="1.1" id="Camada_1" xmlns="http://www.w3.org/2000/svg" xmlns:xlink="http://www.w3.org/1999/xlink" x="0px" y="0px"
	 viewBox="0 0 17.35 26.99" style="enable-background:new 0 0 17.35 26.99;" xml:space="preserve">
<style type="text/css">
	.st0{fill:#C285FF;}
	.st1{fill:#3F1583;}
	.st2{fill:#FFFFFF;}
</style>
<g>
	<path class="st0" d="M3.06,0.02h11.28c1.66,0,3,1.34,3,3v16.45c0,1.66-1.34,3-3,3H3.06c-1.66,0-3-1.34-3-3V3.02
		C0.06,1.36,1.41,0.02,3.06,0.02z"/>
	<path class="st1" d="M0,3.02c-0.01-2.32,2.5-3.77,4.51-2.6l6.61,3.85c0.93,0.54,1.5,1.53,1.49,2.6L12.54,24
		c-0.01,2.37-2.63,3.79-4.62,2.51l-6.48-4.17c-0.85-0.55-1.37-1.5-1.38-2.51L0,3.02z"/>
	<path class="st2" d="M8.42,13.48c0.01-0.55,0.57-0.93,1.08-0.72l0,0c0.6,0.24,1,0.82,1,1.47v1.96c0,0.61-0.64,1.01-1.19,0.74l0,0
		c-0.57-0.28-0.92-0.87-0.91-1.5L8.42,13.48z"/>
</g>
</svg>
