<svg width="556" height="362" viewBox="0 0 556 362" fill="none" xmlns="http://www.w3.org/2000/svg">
<path d="M288.368 225.771L218.056 186.074L288.742 186.512L288.368 225.771Z" fill="#FF9593"/>
<path d="M537.123 238.765V30.7983C527.842 30.7983 530.669 50.1608 510.589 64.5033C490.51 78.8458 463.338 99.1157 459.666 125.472C455.471 155.584 446.833 180.551 432.491 194.893C418.148 209.236 395.849 222.271 347.084 230.16C308.073 236.47 290.67 255.737 286.846 264.582H504.135L537.123 238.765Z" fill="#3F1583"/>
<path d="M398.712 154.135H474.623" stroke="black" stroke-width="6"/>
<path d="M473.328 103.799V153.31" stroke="black" stroke-width="6"/>
<circle cx="473.328" cy="153.31" r="6.5" fill="black" stroke="black"/>
<circle cx="472.867" cy="82.1274" r="48.5738" fill="#C285FF" stroke="black" stroke-width="6"/>
<circle cx="473.498" cy="68.4375" r="13.2881" fill="white" stroke="black" stroke-width="5"/>
<mask id="path-8-inside-1" fill="white">
<path fill-rule="evenodd" clip-rule="evenodd" d="M499.983 109.605C499.985 109.47 499.986 109.334 499.986 109.199C499.986 93.0901 488.338 80.0314 473.969 80.0314C459.6 80.0314 447.952 93.0901 447.952 109.199C447.952 109.334 447.952 109.47 447.954 109.605H499.983Z"/>
</mask>
<path fill-rule="evenodd" clip-rule="evenodd" d="M499.983 109.605C499.985 109.47 499.986 109.334 499.986 109.199C499.986 93.0901 488.338 80.0314 473.969 80.0314C459.6 80.0314 447.952 93.0901 447.952 109.199C447.952 109.334 447.952 109.47 447.954 109.605H499.983Z" fill="white"/>
<path d="M499.983 109.605V114.605H504.923L504.983 109.666L499.983 109.605ZM447.954 109.605L442.955 109.666L443.015 114.605H447.954V109.605ZM494.986 109.199C494.986 109.314 494.985 109.429 494.984 109.544L504.983 109.666C504.985 109.511 504.986 109.355 504.986 109.199H494.986ZM473.969 85.0314C485.054 85.0314 494.986 95.2988 494.986 109.199H504.986C504.986 90.8813 491.621 75.0314 473.969 75.0314V85.0314ZM452.952 109.199C452.952 95.2988 462.883 85.0314 473.969 85.0314V75.0314C456.316 75.0314 442.952 90.8813 442.952 109.199H452.952ZM452.954 109.544C452.952 109.429 452.952 109.314 452.952 109.199H442.952C442.952 109.355 442.953 109.511 442.955 109.666L452.954 109.544ZM447.954 114.605H499.983V104.605H447.954V114.605Z" fill="black" mask="url(#path-8-inside-1)"/>
<path d="M142.795 3.34039H11.5608C10.882 9.02481 30.9232 27.6919 29.489 57.057C28.7617 71.9477 12.647 115.239 3.80245 136.725C-3.23237 153.427 2.525 166.639 18.0149 189.558C33.5049 212.477 37.3773 247.333 37.3773 261.896H89.0104L149.249 153.747L142.795 3.34039Z" fill="#3F1583"/>
<path d="M127.85 26.2319C124.549 26.232 75.3132 26.2319 51.1079 26.2319V61.7148" stroke="black" stroke-width="6"/>
<circle cx="51.2308" cy="93.6643" r="40.075" fill="#8A15FF" stroke="black" stroke-width="6"/>
<circle cx="50.9946" cy="26.0801" r="6.5" fill="black" stroke="black"/>
<circle cx="50.9946" cy="81.9893" r="10.675" fill="white" stroke="black" stroke-width="5"/>
<mask id="path-15-inside-2" fill="white">
<path fill-rule="evenodd" clip-rule="evenodd" d="M73.0962 116.343C73.0975 116.231 73.0982 116.117 73.0982 116.004C73.0982 102.562 63.3779 91.6643 51.3873 91.6643C39.3966 91.6643 29.6763 102.562 29.6763 116.004C29.6763 116.117 29.677 116.231 29.6783 116.343H73.0962Z"/>
</mask>
<path fill-rule="evenodd" clip-rule="evenodd" d="M73.0962 116.343C73.0975 116.231 73.0982 116.117 73.0982 116.004C73.0982 102.562 63.3779 91.6643 51.3873 91.6643C39.3966 91.6643 29.6763 102.562 29.6763 116.004C29.6763 116.117 29.677 116.231 29.6783 116.343H73.0962Z" fill="white"/>
<path d="M73.0962 116.343V121.343H78.0356L78.0958 116.404L73.0962 116.343ZM29.6783 116.343L24.6787 116.404L24.7389 121.343H29.6783V116.343ZM68.0982 116.004C68.0982 116.097 68.0977 116.19 68.0965 116.283L78.0958 116.404C78.0974 116.271 78.0982 116.138 78.0982 116.004H68.0982ZM51.3873 96.6643C60.0945 96.6643 68.0982 104.77 68.0982 116.004H78.0982C78.0982 100.353 66.6613 86.6643 51.3873 86.6643V96.6643ZM34.6763 116.004C34.6763 104.77 42.6801 96.6643 51.3873 96.6643V86.6643C36.1132 86.6643 24.6763 100.353 24.6763 116.004H34.6763ZM34.678 116.283C34.6768 116.19 34.6763 116.097 34.6763 116.004H24.6763C24.6763 116.138 24.6771 116.271 24.6787 116.404L34.678 116.283ZM29.6783 121.343H73.0962V111.343H29.6783V121.343Z" fill="black" mask="url(#path-15-inside-2)"/>
<rect x="222.633" y="157.296" width="65.3827" height="104.285" stroke="black" stroke-width="6"/>
<rect x="109.847" y="3.14508" width="294.476" height="184.038" rx="17" fill="white" stroke="black" stroke-width="6"/>
<rect x="248.076" y="54.8845" width="156.247" height="94.4254" stroke="black" stroke-width="6"/>
<rect x="248.076" y="54.8845" width="156.247" height="27.1242" fill="#8A15FF" stroke="black" stroke-width="6"/>
<mask id="path-21-inside-3" fill="white">
<path fill-rule="evenodd" clip-rule="evenodd" d="M407.323 147.31V170.184C407.323 181.229 398.369 190.184 387.323 190.184H126.847C115.801 190.184 106.847 181.229 106.847 170.184V147.31H407.323Z"/>
</mask>
<path fill-rule="evenodd" clip-rule="evenodd" d="M407.323 147.31V170.184C407.323 181.229 398.369 190.184 387.323 190.184H126.847C115.801 190.184 106.847 181.229 106.847 170.184V147.31H407.323Z" fill="#C285FF"/>
<path d="M407.323 147.31H413.323V141.31H407.323V147.31ZM106.847 147.31V141.31H100.847V147.31H106.847ZM401.323 147.31V170.184H413.323V147.31H401.323ZM401.323 170.184C401.323 177.916 395.055 184.184 387.323 184.184V196.184C401.682 196.184 413.323 184.543 413.323 170.184H401.323ZM387.323 184.184H126.847V196.184H387.323V184.184ZM126.847 184.184C119.115 184.184 112.847 177.916 112.847 170.184H100.847C100.847 184.543 112.488 196.184 126.847 196.184V184.184ZM112.847 170.184V147.31H100.847V170.184H112.847ZM106.847 153.31H407.323V141.31H106.847V153.31Z" fill="black" mask="url(#path-21-inside-3)"/>
<rect x="275.052" y="100.554" width="102.294" height="27.1242" stroke="black" stroke-width="6"/>
<path d="M195.015 253.826C195.871 253.826 196.515 254.473 196.515 255.211C196.515 255.948 195.871 256.596 195.015 256.596C194.158 256.596 193.515 255.948 193.515 255.211C193.515 254.473 194.158 253.826 195.015 253.826Z" fill="black" stroke="black"/>
<path d="M195.015 245.344C195.871 245.344 196.515 245.991 196.515 246.728C196.515 247.466 195.871 248.113 195.015 248.113C194.158 248.113 193.515 247.466 193.515 246.728C193.515 245.991 194.158 245.344 195.015 245.344Z" fill="black" stroke="black"/>
<path d="M195.015 236.861C195.871 236.861 196.515 237.509 196.515 238.246C196.515 238.983 195.871 239.631 195.015 239.631C194.158 239.631 193.515 238.983 193.515 238.246C193.515 237.509 194.158 236.861 195.015 236.861Z" fill="black" stroke="black"/>
<path d="M195.015 228.379C195.871 228.379 196.515 229.026 196.515 229.764C196.515 230.501 195.871 231.149 195.015 231.149C194.158 231.149 193.515 230.501 193.515 229.764C193.515 229.026 194.158 228.379 195.015 228.379Z" fill="black" stroke="black"/>
<path d="M195.015 219.896C195.871 219.896 196.515 220.544 196.515 221.281C196.515 222.019 195.871 222.666 195.015 222.666C194.158 222.666 193.515 222.019 193.515 221.281C193.515 220.544 194.158 219.896 195.015 219.896Z" fill="black" stroke="black"/>
<path d="M195.015 210.471C195.871 210.471 196.515 211.119 196.515 211.856C196.515 212.594 195.871 213.241 195.015 213.241C194.158 213.241 193.515 212.594 193.515 211.856C193.515 211.119 194.158 210.471 195.015 210.471Z" fill="black" stroke="black"/>
<path d="M195.015 201.989C195.871 201.989 196.515 202.637 196.515 203.374C196.515 204.111 195.871 204.759 195.015 204.759C194.158 204.759 193.515 204.111 193.515 203.374C193.515 202.637 194.158 201.989 195.015 201.989Z" fill="black" stroke="black"/>
<path d="M195.015 193.507C195.871 193.507 196.515 194.154 196.515 194.892C196.515 195.629 195.871 196.277 195.015 196.277C194.158 196.277 193.515 195.629 193.515 194.892C193.515 194.154 194.158 193.507 195.015 193.507Z" fill="black" stroke="black"/>
<path d="M205.015 253.826C205.871 253.826 206.515 254.473 206.515 255.211C206.515 255.948 205.871 256.596 205.015 256.596C204.158 256.596 203.515 255.948 203.515 255.211C203.515 254.473 204.158 253.826 205.015 253.826Z" fill="black" stroke="black"/>
<path d="M205.015 245.344C205.871 245.344 206.515 245.991 206.515 246.728C206.515 247.466 205.871 248.113 205.015 248.113C204.158 248.113 203.515 247.466 203.515 246.728C203.515 245.991 204.158 245.344 205.015 245.344Z" fill="black" stroke="black"/>
<path d="M205.015 236.861C205.871 236.861 206.515 237.509 206.515 238.246C206.515 238.983 205.871 239.631 205.015 239.631C204.158 239.631 203.515 238.983 203.515 238.246C203.515 237.509 204.158 236.861 205.015 236.861Z" fill="black" stroke="black"/>
<path d="M205.015 228.379C205.871 228.379 206.515 229.026 206.515 229.764C206.515 230.501 205.871 231.149 205.015 231.149C204.158 231.149 203.515 230.501 203.515 229.764C203.515 229.026 204.158 228.379 205.015 228.379Z" fill="black" stroke="black"/>
<path d="M205.015 219.896C205.871 219.896 206.515 220.544 206.515 221.281C206.515 222.019 205.871 222.666 205.015 222.666C204.158 222.666 203.515 222.019 203.515 221.281C203.515 220.544 204.158 219.896 205.015 219.896Z" fill="black" stroke="black"/>
<path d="M205.015 210.471C205.871 210.471 206.515 211.119 206.515 211.856C206.515 212.594 205.871 213.241 205.015 213.241C204.158 213.241 203.515 212.594 203.515 211.856C203.515 211.119 204.158 210.471 205.015 210.471Z" fill="black" stroke="black"/>
<path d="M205.015 201.989C205.871 201.989 206.515 202.637 206.515 203.374C206.515 204.111 205.871 204.759 205.015 204.759C204.158 204.759 203.515 204.111 203.515 203.374C203.515 202.637 204.158 201.989 205.015 201.989Z" fill="black" stroke="black"/>
<path d="M205.015 193.507C205.871 193.507 206.515 194.154 206.515 194.892C206.515 195.629 205.871 196.277 205.015 196.277C204.158 196.277 203.515 195.629 203.515 194.892C203.515 194.154 204.158 193.507 205.015 193.507Z" fill="black" stroke="black"/>
<path d="M215.015 253.826C215.871 253.826 216.515 254.473 216.515 255.211C216.515 255.948 215.871 256.596 215.015 256.596C214.158 256.596 213.515 255.948 213.515 255.211C213.515 254.473 214.158 253.826 215.015 253.826Z" fill="black" stroke="black"/>
<path d="M215.015 245.344C215.871 245.344 216.515 245.991 216.515 246.728C216.515 247.466 215.871 248.113 215.015 248.113C214.158 248.113 213.515 247.466 213.515 246.728C213.515 245.991 214.158 245.344 215.015 245.344Z" fill="black" stroke="black"/>
<path d="M215.015 236.861C215.871 236.861 216.515 237.509 216.515 238.246C216.515 238.983 215.871 239.631 215.015 239.631C214.158 239.631 213.515 238.983 213.515 238.246C213.515 237.509 214.158 236.861 215.015 236.861Z" fill="black" stroke="black"/>
<path d="M215.015 228.379C215.871 228.379 216.515 229.026 216.515 229.764C216.515 230.501 215.871 231.149 215.015 231.149C214.158 231.149 213.515 230.501 213.515 229.764C213.515 229.026 214.158 228.379 215.015 228.379Z" fill="black" stroke="black"/>
<path d="M215.015 219.896C215.871 219.896 216.515 220.544 216.515 221.281C216.515 222.019 215.871 222.666 215.015 222.666C214.158 222.666 213.515 222.019 213.515 221.281C213.515 220.544 214.158 219.896 215.015 219.896Z" fill="black" stroke="black"/>
<path d="M215.015 210.471C215.871 210.471 216.515 211.119 216.515 211.856C216.515 212.594 215.871 213.241 215.015 213.241C214.158 213.241 213.515 212.594 213.515 211.856C213.515 211.119 214.158 210.471 215.015 210.471Z" fill="black" stroke="black"/>
<path d="M215.015 201.989C215.871 201.989 216.515 202.637 216.515 203.374C216.515 204.111 215.871 204.759 215.015 204.759C214.158 204.759 213.515 204.111 213.515 203.374C213.515 202.637 214.158 201.989 215.015 201.989Z" fill="black" stroke="black"/>
<path d="M215.015 193.507C215.871 193.507 216.515 194.154 216.515 194.892C216.515 195.629 215.871 196.277 215.015 196.277C214.158 196.277 213.515 195.629 213.515 194.892C213.515 194.154 214.158 193.507 215.015 193.507Z" fill="black" stroke="black"/>
<path fill-rule="evenodd" clip-rule="evenodd" d="M143.416 234.907L143.416 230.174L141.217 230.174L141.217 234.907L136.484 234.907L136.484 237.106L141.217 237.106L141.217 241.84L143.416 241.84L143.416 237.106L148.15 237.106L148.15 234.907L143.416 234.907Z" fill="black"/>
<path d="M143.416 230.174L144.416 230.174L144.416 229.174L143.416 229.174L143.416 230.174ZM143.416 234.907L142.416 234.907L142.416 235.907L143.416 235.907L143.416 234.907ZM141.217 230.174L141.217 229.174L140.217 229.174L140.217 230.174L141.217 230.174ZM141.217 234.907L141.217 235.907L142.217 235.907L142.217 234.907L141.217 234.907ZM136.484 234.907L136.484 233.907L135.484 233.907L135.484 234.907L136.484 234.907ZM136.484 237.106L135.484 237.106L135.484 238.106L136.484 238.106L136.484 237.106ZM141.217 237.106L142.217 237.106L142.217 236.106L141.217 236.106L141.217 237.106ZM141.217 241.84L140.217 241.84L140.217 242.84L141.217 242.84L141.217 241.84ZM143.416 241.84L143.416 242.84L144.416 242.84L144.416 241.84L143.416 241.84ZM143.416 237.106L143.416 236.106L142.416 236.106L142.416 237.106L143.416 237.106ZM148.15 237.106L148.15 238.106L149.15 238.106L149.15 237.106L148.15 237.106ZM148.15 234.907L149.15 234.907L149.15 233.907L148.15 233.907L148.15 234.907ZM142.416 230.174L142.416 234.907L144.416 234.907L144.416 230.174L142.416 230.174ZM141.217 231.174L143.416 231.174L143.416 229.174L141.217 229.174L141.217 231.174ZM142.217 234.907L142.217 230.174L140.217 230.174L140.217 234.907L142.217 234.907ZM136.484 235.907L141.217 235.907L141.217 233.907L136.484 233.907L136.484 235.907ZM137.484 237.106L137.484 234.907L135.484 234.907L135.484 237.106L137.484 237.106ZM141.217 236.106L136.484 236.106L136.484 238.106L141.217 238.106L141.217 236.106ZM142.217 241.84L142.217 237.106L140.217 237.106L140.217 241.84L142.217 241.84ZM143.416 240.84L141.217 240.84L141.217 242.84L143.416 242.84L143.416 240.84ZM142.416 237.106L142.416 241.84L144.416 241.84L144.416 237.106L142.416 237.106ZM148.15 236.106L143.416 236.106L143.416 238.106L148.15 238.106L148.15 236.106ZM147.15 234.907L147.15 237.106L149.15 237.106L149.15 234.907L147.15 234.907ZM143.416 235.907L148.15 235.907L148.15 233.907L143.416 233.907L143.416 235.907Z" fill="black"/>
<path fill-rule="evenodd" clip-rule="evenodd" d="M514.949 19.2595L514.949 14.526L512.75 14.526L512.75 19.2595L508.016 19.2595L508.016 21.4585L512.75 21.4585L512.75 26.1921L514.949 26.1921L514.949 21.4585L519.682 21.4585L519.682 19.2595H514.949Z" fill="black"/>
<path d="M514.949 14.526L515.949 14.526L515.949 13.526L514.949 13.526L514.949 14.526ZM514.949 19.2595L513.949 19.2595L513.949 20.2595H514.949V19.2595ZM512.75 14.526L512.75 13.526L511.75 13.526L511.75 14.526L512.75 14.526ZM512.75 19.2595L512.75 20.2595L513.75 20.2595L513.75 19.2595L512.75 19.2595ZM508.016 19.2595L508.016 18.2595L507.016 18.2595L507.016 19.2595L508.016 19.2595ZM508.016 21.4585L507.016 21.4585L507.016 22.4585L508.016 22.4585L508.016 21.4585ZM512.75 21.4585L513.75 21.4585L513.75 20.4585L512.75 20.4585L512.75 21.4585ZM512.75 26.1921L511.75 26.1921L511.75 27.1921L512.75 27.1921L512.75 26.1921ZM514.949 26.1921L514.949 27.1921L515.949 27.1921L515.949 26.1921L514.949 26.1921ZM514.949 21.4585L514.949 20.4585L513.949 20.4585L513.949 21.4585L514.949 21.4585ZM519.682 21.4585L519.682 22.4585L520.682 22.4585L520.682 21.4585L519.682 21.4585ZM519.682 19.2595L520.682 19.2595L520.682 18.2595H519.682V19.2595ZM513.949 14.526L513.949 19.2595L515.949 19.2595L515.949 14.526L513.949 14.526ZM512.75 15.526L514.949 15.526L514.949 13.526L512.75 13.526L512.75 15.526ZM513.75 19.2595L513.75 14.526L511.75 14.526L511.75 19.2595L513.75 19.2595ZM508.016 20.2595L512.75 20.2595L512.75 18.2595L508.016 18.2595L508.016 20.2595ZM509.016 21.4585L509.016 19.2595L507.016 19.2595L507.016 21.4585L509.016 21.4585ZM512.75 20.4585L508.016 20.4585L508.016 22.4585L512.75 22.4585L512.75 20.4585ZM513.75 26.1921L513.75 21.4585L511.75 21.4585L511.75 26.1921L513.75 26.1921ZM514.949 25.1921L512.75 25.1921L512.75 27.1921L514.949 27.1921L514.949 25.1921ZM513.949 21.4585L513.949 26.1921L515.949 26.1921L515.949 21.4585L513.949 21.4585ZM519.682 20.4585L514.949 20.4585L514.949 22.4585L519.682 22.4585L519.682 20.4585ZM518.682 19.2595L518.682 21.4585L520.682 21.4585L520.682 19.2595L518.682 19.2595ZM514.949 20.2595H519.682V18.2595H514.949V20.2595Z" fill="black"/>
<path fill-rule="evenodd" clip-rule="evenodd" d="M10.5147 43.8525L10.5147 39.1189L8.31571 39.1189L8.31571 43.8525L3.58223 43.8525L3.58223 46.0514L8.31571 46.0514L8.31571 50.785L10.5147 50.785L10.5147 46.0514L15.2483 46.0514L15.2483 43.8525H10.5147Z" fill="black"/>
<path d="M10.5147 39.1189L11.5147 39.1189L11.5147 38.1189L10.5147 38.1189L10.5147 39.1189ZM10.5147 43.8525L9.51466 43.8525L9.51466 44.8525H10.5147V43.8525ZM8.31571 39.1189L8.31571 38.1189L7.31571 38.1189L7.31571 39.1189L8.31571 39.1189ZM8.31571 43.8525L8.31571 44.8525L9.31571 44.8525L9.31571 43.8525L8.31571 43.8525ZM3.58223 43.8525L3.58223 42.8525L2.58223 42.8525L2.58223 43.8525L3.58223 43.8525ZM3.58223 46.0514L2.58223 46.0514L2.58223 47.0514L3.58223 47.0514L3.58223 46.0514ZM8.31571 46.0514L9.31571 46.0514L9.31571 45.0514L8.31571 45.0514L8.31571 46.0514ZM8.31571 50.785L7.31571 50.785L7.31571 51.785L8.31571 51.785L8.31571 50.785ZM10.5147 50.785L10.5147 51.785L11.5147 51.785L11.5147 50.785L10.5147 50.785ZM10.5147 46.0514L10.5147 45.0514L9.51466 45.0514L9.51466 46.0514L10.5147 46.0514ZM15.2483 46.0514L15.2483 47.0514L16.2483 47.0514L16.2483 46.0514L15.2483 46.0514ZM15.2483 43.8525L16.2483 43.8525L16.2483 42.8525H15.2483V43.8525ZM9.51466 39.1189L9.51466 43.8525L11.5147 43.8525L11.5147 39.1189L9.51466 39.1189ZM8.31571 40.1189L10.5147 40.1189L10.5147 38.1189L8.31571 38.1189L8.31571 40.1189ZM9.31571 43.8525L9.31571 39.1189L7.31571 39.1189L7.31571 43.8525L9.31571 43.8525ZM3.58223 44.8525L8.31571 44.8525L8.31571 42.8525L3.58223 42.8525L3.58223 44.8525ZM4.58223 46.0514L4.58223 43.8525L2.58223 43.8525L2.58223 46.0514L4.58223 46.0514ZM8.31571 45.0514L3.58223 45.0514L3.58223 47.0514L8.31571 47.0514L8.31571 45.0514ZM9.31571 50.785L9.31571 46.0514L7.31571 46.0514L7.31571 50.785L9.31571 50.785ZM10.5147 49.785L8.31571 49.785L8.31571 51.785L10.5147 51.785L10.5147 49.785ZM9.51466 46.0514L9.51466 50.785L11.5147 50.785L11.5147 46.0514L9.51466 46.0514ZM15.2483 45.0514L10.5147 45.0514L10.5147 47.0514L15.2483 47.0514L15.2483 45.0514ZM14.2483 43.8525L14.2483 46.0514L16.2483 46.0514L16.2483 43.8525L14.2483 43.8525ZM10.5147 44.8525H15.2483V42.8525H10.5147V44.8525Z" fill="black"/>
<path d="M335.873 261.896H39.3325" stroke="black" stroke-width="6" stroke-linecap="round"/>
<path d="M64.2605 133.582L250.399 41L177.655 240.519L148.97 189.26L87.0821 259.896L55.7024 231.189L117.035 161.572L64.2605 133.582Z" fill="white" stroke="black" stroke-width="6" stroke-linecap="round" stroke-linejoin="round"/>
<path d="M11.8955 206.036C18.4804 201.89 31.7864 190.874 34.4081 179.925C36.9856 169.16 28.9499 164.308 25.0652 167.99C20.7625 172.495 26.8212 181.599 39.6982 180.428C52.5753 179.258 63.111 169.697 66.7693 165.064" stroke="black" stroke-width="5" stroke-linecap="round" stroke-linejoin="round"/>
<path d="M517.243 347.138H422.829C421.028 347.138 417.425 347.766 417.425 351.848C417.425 355.931 421.185 356.166 422.829 356.166H430.164H450.844C445.285 356.166 443.895 361.661 450.844 361.661H511.992C511.992 361.661 517.243 361.661 517.243 358.651C517.243 355.64 511.992 356.166 511.992 354.95C511.992 353.734 519.393 353.717 519.393 353.717C523.093 353.717 528.438 353.979 528.438 350.838C528.438 347.698 525.35 347.138 517.243 347.138Z" fill="#C4C4C4" fill-opacity="0.6"/>
<path d="M553.158 229.626C555.987 238.283 555.016 247.573 550.541 255.428C555.016 263.282 555.902 272.657 553.074 281.314C550.246 289.971 543.998 296.897 535.766 300.613C534.753 309.608 530.067 317.674 522.722 323.037C519.007 325.739 514.828 327.555 510.48 328.484L504.57 329.118C502.164 329.16 499.758 328.949 497.394 328.442C496.254 329.709 494.988 330.891 493.679 331.947L487.769 335.663C483.463 337.775 478.693 338.915 473.712 338.915C468.773 338.915 463.96 337.775 459.655 335.663L453.745 331.863C452.436 330.807 451.17 329.624 450.03 328.357C447.624 328.864 445.218 329.075 442.854 329.033L436.944 328.4C432.596 327.471 428.416 325.655 424.702 322.952C417.314 317.589 412.628 309.523 411.658 300.528C403.426 296.855 397.178 289.887 394.35 281.23C391.522 272.573 392.492 263.282 396.967 255.428C392.492 247.573 391.522 238.283 394.35 229.626C397.178 220.969 403.426 214.043 411.658 210.327C412.671 201.332 417.356 193.266 424.702 187.903C432.047 182.582 441.207 180.64 450.03 182.456C456.109 175.784 464.636 171.983 473.754 171.983C482.872 171.983 491.399 175.784 497.478 182.456C506.301 180.598 515.461 182.54 522.807 187.903C530.194 193.266 534.88 201.332 535.851 210.327C544.082 214.001 550.33 220.969 553.158 229.626Z" fill="white"/>
<path d="M551.006 255.222C555.559 247.232 556.547 237.781 553.669 228.975C550.791 220.169 544.433 213.081 536.057 209.344C535.069 200.194 530.3 191.989 522.783 186.533C515.308 181.078 505.987 179.102 497.008 180.992C490.823 174.205 482.145 170.338 472.867 170.338C463.588 170.338 454.91 174.205 448.725 180.992C439.746 179.145 430.425 181.121 422.95 186.533C415.476 191.989 410.707 200.194 409.676 209.344C401.3 213.124 394.942 220.169 392.064 228.975C389.186 237.781 390.174 247.232 394.727 255.222C390.174 263.212 389.186 272.663 392.064 281.469C394.942 290.275 401.3 297.363 409.676 301.1C410.664 310.25 415.433 318.455 422.95 323.91C426.73 326.66 430.983 328.507 435.408 329.452V351.446C435.408 353.121 436.739 354.453 438.415 354.453C440.09 354.453 441.422 353.121 441.422 351.446V330.096C443.827 330.139 446.276 329.925 448.725 329.409C449.884 330.698 451.173 331.901 452.505 332.974V351.403C452.505 353.078 453.836 354.41 455.512 354.41C457.187 354.41 458.519 353.078 458.519 351.403V336.841C462.9 338.988 467.798 340.148 472.824 340.148C477.893 340.148 482.747 338.988 487.128 336.841V351.489C487.128 353.164 488.46 354.496 490.135 354.496C491.811 354.496 493.142 353.164 493.142 351.489V333.06C494.474 331.986 495.763 330.784 496.923 329.495C499.328 330.01 501.777 330.225 504.225 330.182V351.532C504.225 353.207 505.557 354.539 507.232 354.539C508.908 354.539 510.239 353.207 510.239 351.532V329.538C514.664 328.593 518.917 326.746 522.697 323.996C530.171 318.541 534.94 310.336 535.971 301.186C544.347 297.406 550.705 290.361 553.583 281.555C556.461 272.748 555.559 263.212 551.006 255.222ZM547.999 279.622C545.507 287.311 539.751 293.368 532.19 296.246L530.343 296.933L530.257 298.866C529.828 306.942 525.876 314.288 519.303 319.013C516.554 320.989 513.547 322.407 510.368 323.223V303.291C510.368 301.616 509.036 300.284 507.361 300.284C505.686 300.284 504.354 301.616 504.354 303.291V324.039C501.82 324.082 499.285 323.825 496.751 323.137L494.861 322.622L493.615 324.125C493.486 324.254 493.357 324.426 493.271 324.555C491.51 326.617 489.491 328.421 487.257 329.839C483.047 332.545 478.107 334.005 472.952 334.005C467.798 334.005 462.857 332.545 458.648 329.839C456.414 328.421 454.395 326.617 452.634 324.555C452.505 324.426 452.376 324.297 452.29 324.125L451.044 322.622L449.154 323.137C446.62 323.825 444.085 324.125 441.551 324.039V303.291C441.551 301.616 440.219 300.284 438.544 300.284C436.868 300.284 435.537 301.616 435.537 303.291V323.223C432.358 322.407 429.351 320.989 426.602 319.013C420.072 314.245 416.077 306.899 415.647 298.866L415.562 296.933L413.714 296.246C406.154 293.368 400.398 287.311 397.906 279.622C395.415 271.932 396.489 263.641 400.913 256.897L401.987 255.265L400.913 253.632C396.489 246.845 395.415 238.554 397.906 230.908C400.398 223.262 406.154 217.162 413.714 214.284L415.562 213.596L415.647 211.663C416.077 203.587 420.029 196.242 426.602 191.516C433.131 186.748 441.336 185.245 449.154 187.349L451.044 187.865L452.29 186.361C457.359 180.09 464.919 176.481 472.995 176.481C481.071 176.481 488.632 180.09 493.701 186.361L494.947 187.865L496.837 187.349C504.655 185.245 512.86 186.791 519.389 191.516C525.919 196.285 529.914 203.63 530.343 211.663L530.429 213.596L532.276 214.284C539.837 217.162 545.593 223.219 548.085 230.908C550.576 238.597 549.502 246.888 545.078 253.632L544.004 255.265L545.078 256.897C549.373 263.641 550.49 271.932 547.999 279.622Z" fill="black"/>
<path d="M504.956 233.056C502.593 230.822 499.242 230.264 496.407 231.423C493.099 227.514 488.116 225.023 482.575 225.023H462.986C457.488 225.023 452.548 227.471 449.24 231.338C446.448 230.307 443.183 230.865 440.906 233.056L434.549 239.199C433.002 240.659 432.143 242.678 432.1 244.826C432.057 246.974 432.83 248.993 434.334 250.539C435.794 252.086 437.813 252.945 439.961 252.988C440.004 252.988 440.09 252.988 440.133 252.988C441.894 252.988 443.527 252.43 444.901 251.399V267.336C444.901 277.345 453.02 285.464 463.029 285.464H482.618C492.627 285.464 500.746 277.345 500.746 267.336V251.184C502.163 252.344 503.925 252.988 505.815 252.988C505.858 252.988 505.944 252.988 505.987 252.988C508.134 252.945 510.11 252.086 511.614 250.539C513.074 248.993 513.891 246.974 513.848 244.826C513.805 242.678 512.946 240.702 511.399 239.199L504.956 233.056ZM504.741 246.673L499.93 236.922C500.23 237.008 500.574 237.18 500.789 237.395L507.146 243.537C507.533 243.924 507.748 244.397 507.748 244.955C507.748 245.513 507.576 245.986 507.189 246.373C506.803 246.759 506.33 246.974 505.772 246.974C505.428 246.974 505.041 246.845 504.741 246.673ZM494.689 267.336C494.689 273.994 489.276 279.45 482.575 279.45H462.986C456.328 279.45 450.872 274.037 450.872 267.336V243.108C450.872 241.733 451.087 240.402 451.517 239.156L452.848 236.449C454.996 233.185 458.734 230.994 462.943 230.994H482.532C489.19 230.994 494.646 236.406 494.646 243.108V267.336H494.689ZM440.09 246.974C439.532 246.974 439.059 246.759 438.673 246.373C438.286 245.986 438.114 245.47 438.114 244.955C438.114 244.439 438.329 243.924 438.716 243.537L445.073 237.395C445.331 237.137 445.632 237.008 445.932 236.922L441.164 246.673C440.863 246.845 440.477 246.974 440.09 246.974Z" fill="black"/>
<path d="M458.519 252.988C460.203 252.988 461.569 251.623 461.569 249.938C461.569 248.254 460.203 246.888 458.519 246.888C456.834 246.888 455.469 248.254 455.469 249.938C455.469 251.623 456.834 252.988 458.519 252.988Z" fill="black"/>
<path d="M487.085 252.988C488.77 252.988 490.135 251.623 490.135 249.938C490.135 248.254 488.77 246.888 487.085 246.888C485.401 246.888 484.035 248.254 484.035 249.938C484.035 251.623 485.401 252.988 487.085 252.988Z" fill="black"/>
<path d="M352.921 211.015C353.458 209.052 356.242 209.052 356.779 211.015L358.43 217.049C358.75 218.221 360.033 218.839 361.149 218.359L366.896 215.887C368.766 215.083 370.502 217.26 369.301 218.903L365.612 223.956C364.896 224.937 365.213 226.326 366.284 226.899L371.8 229.851C373.595 230.811 372.975 233.526 370.942 233.612L364.691 233.878C363.477 233.93 362.589 235.043 362.809 236.238L363.941 242.391C364.309 244.393 361.8 245.601 360.464 244.065L356.359 239.344C355.562 238.427 354.138 238.427 353.341 239.344L349.236 244.065C347.9 245.601 345.391 244.393 345.76 242.391L346.891 236.238C347.111 235.043 346.223 233.93 345.009 233.878L338.759 233.612C336.725 233.526 336.106 230.811 337.9 229.851L343.416 226.899C344.487 226.326 344.804 224.937 344.088 223.956L340.399 218.903C339.199 217.26 340.935 215.083 342.804 215.887L348.551 218.359C349.667 218.839 350.95 218.221 351.271 217.049L352.921 211.015Z" fill="#FF9593"/>
<path d="M157.156 21.6402C157.156 20.5356 156.261 19.6402 155.156 19.6402C154.052 19.6402 153.156 20.5356 153.156 21.6402H157.156ZM153.156 32.9429C153.156 34.0475 154.052 34.9429 155.156 34.9429C156.261 34.9429 157.156 34.0475 157.156 32.9429H153.156ZM153.156 21.6402V32.9429H157.156V21.6402H153.156Z" fill="black"/>
<path d="M132.551 43.6584C131.446 43.6584 130.551 44.5538 130.551 45.6584C130.551 46.763 131.446 47.6584 132.551 47.6584V43.6584ZM143.853 47.6584C144.958 47.6584 145.853 46.763 145.853 45.6584C145.853 44.5538 144.958 43.6584 143.853 43.6584V47.6584ZM132.551 47.6584H143.853V43.6584H132.551V47.6584Z" fill="black"/>
<path d="M177.551 46.9565C178.655 46.9565 179.551 46.0611 179.551 44.9565C179.551 43.8519 178.655 42.9565 177.551 42.9565V46.9565ZM166.248 42.9565C165.144 42.9565 164.248 43.8519 164.248 44.9565C164.248 46.0611 165.144 46.9565 166.248 46.9565V42.9565ZM177.551 42.9565H166.248V46.9565H177.551V42.9565Z" fill="black"/>
<path d="M157.156 56.9611C157.156 55.8566 156.261 54.9611 155.156 54.9611C154.052 54.9611 153.156 55.8566 153.156 56.9611H157.156ZM153.156 68.2638C153.156 69.3684 154.052 70.2638 155.156 70.2638C156.261 70.2638 157.156 69.3684 157.156 68.2638H153.156ZM153.156 56.9611V68.2638H157.156V56.9611H153.156Z" fill="black"/>
<path d="M141.005 27.4071C140.252 26.5992 138.986 26.555 138.178 27.3083C137.37 28.0617 137.326 29.3272 138.08 30.1351L141.005 27.4071ZM145.788 38.4013C146.541 39.2091 147.807 39.2533 148.615 38.5C149.422 37.7467 149.467 36.4812 148.713 35.6733L145.788 38.4013ZM138.08 30.1351L145.788 38.4013L148.713 35.6733L141.005 27.4071L138.08 30.1351Z" fill="black"/>
<path d="M169.235 63.2079C169.988 64.0157 171.253 64.0599 172.061 63.3066C172.869 62.5533 172.913 61.2877 172.16 60.4799L169.235 63.2079ZM164.452 52.2136C163.698 51.4058 162.433 51.3616 161.625 52.1149C160.817 52.8682 160.773 54.1338 161.526 54.9416L164.452 52.2136ZM172.16 60.4799L164.452 52.2136L161.526 54.9416L169.235 63.2079L172.16 60.4799Z" fill="black"/>
<path d="M149.245 55.5981C150.053 54.8448 150.097 53.5793 149.344 52.7714C148.59 51.9636 147.325 51.9194 146.517 52.6727L149.245 55.5981ZM138.251 60.3811C137.443 61.1345 137.399 62.4 138.152 63.2078C138.905 64.0157 140.171 64.0599 140.979 63.3066L138.251 60.3811ZM146.517 52.6727L138.251 60.3811L140.979 63.3066L149.245 55.5981L146.517 52.6727Z" fill="black"/>
<path d="M160.856 35.0167C160.048 35.77 160.004 37.0356 160.758 37.8434C161.511 38.6513 162.776 38.6955 163.584 37.9421L160.856 35.0167ZM171.85 30.2337C172.658 29.4804 172.702 28.2149 171.949 27.407C171.196 26.5992 169.93 26.555 169.122 27.3083L171.85 30.2337ZM163.584 37.9421L171.85 30.2337L169.122 27.3083L160.856 35.0167L163.584 37.9421Z" fill="black"/>
</svg>
